HIERARCHY
ROOT Hips
{
	OFFSET -3.958830 18.904000 13.208200
	CHANNELS 6 Xposition Yposition Zposition Zrotation Yrotation Xrotation 
	JOINT LHipJoint
	{
		OFFSET 0.000000 0.000000 0.000000
		CHANNELS 3 Zrotation Yrotation Xrotation
		JOINT LeftUpLeg
		{
			OFFSET 1.800000 -1.400000 0.085000
			CHANNELS 3 Zrotation Yrotation Xrotation
			JOINT LeftLeg
			{
				OFFSET 2.215000 -6.000000 0.000000
				CHANNELS 3 Zrotation Yrotation Xrotation
				JOINT LeftFoot
				{
					OFFSET 2.500000 -6.900000 0.000000
					CHANNELS 3 Zrotation Yrotation Xrotation
					JOINT LeftToeBase
					{
						OFFSET 0.200000 -0.500000 1.950000
						CHANNELS 3 Zrotation Yrotation Xrotation
						End Site
						{
							OFFSET 0.000000 0.000000 0.000000
						}
					}
				}
			}
		}
	}
	JOINT RHipJoint
	{
		OFFSET 0.000000 0.000000 0.000000
		CHANNELS 3 Zrotation Yrotation Xrotation
		JOINT RightUpLeg
		{
			OFFSET -1.800000 -1.400000 0.085000
			CHANNELS 3 Zrotation Yrotation Xrotation
			JOINT RightLeg
			{
				OFFSET -2.215000 -6.000000 0.000000
				CHANNELS 3 Zrotation Yrotation Xrotation
				JOINT RightFoot
				{
					OFFSET -2.500000 -6.900000 0.000000
					CHANNELS 3 Zrotation Yrotation Xrotation
					JOINT RightToeBase
					{
						OFFSET -0.200000 -0.500000 1.950000
						CHANNELS 3 Zrotation Yrotation Xrotation
						End Site
						{
							OFFSET 0.000000 0.000000 0.000000
						}
					}
				}
			}
		}
	}
	JOINT LowerBack
	{
		OFFSET 0.000000 0.000000 0.000000
		CHANNELS 3 Zrotation Yrotation Xrotation
		JOINT Spine
		{
			OFFSET -0.087000 1.940000 -0.288900
			CHANNELS 3 Zrotation Yrotation Xrotation
			JOINT Spine1
			{
				OFFSET 0.000000 1.950000 0.060000
				CHANNELS 3 Zrotation Yrotation Xrotation
				JOINT Neck
				{
					OFFSET 0.000000 0.000000 0.000000
					CHANNELS 3 Zrotation Yrotation Xrotation
					JOINT Neck1
					{
						OFFSET 0.000000 1.600000 0.340000
						CHANNELS 3 Zrotation Yrotation Xrotation
						JOINT Head
						{
							OFFSET 0.000000 1.667000 -0.240000
							CHANNELS 3 Zrotation Yrotation Xrotation
							End Site
							{
								OFFSET 0.000000 0.000000 0.000000
							}
						}
					}
				}
				JOINT LeftShoulder
				{
					OFFSET 0.000000 0.000000 0.000000
					CHANNELS 3 Zrotation Yrotation Xrotation
					JOINT LeftArm
					{
						OFFSET 2.700000 1.550000 -0.730000
						CHANNELS 3 Zrotation Yrotation Xrotation
						JOINT LeftForeArm
						{
							OFFSET 5.450000 0.000000 0.000000
							CHANNELS 3 Zrotation Yrotation Xrotation
							JOINT LeftHand
							{
								OFFSET 3.450000 0.000000 0.000000
								CHANNELS 3 Zrotation Yrotation Xrotation
								JOINT LeftHandIndex1
								{
									OFFSET 0.750000 0.000000 0.000000
									CHANNELS 3 Zrotation Yrotation Xrotation
									End Site
									{
										OFFSET 0.000000 0.000000 0.000000
									}
								}
							}
						}
					}
				}
				JOINT RightShoulder
				{
					OFFSET 0.000000 0.000000 0.000000
					CHANNELS 3 Zrotation Yrotation Xrotation
					JOINT RightArm
					{
						OFFSET -2.700000 1.550000 -0.730000
						CHANNELS 3 Zrotation Yrotation Xrotation
						JOINT RightForeArm
						{
							OFFSET -5.450000 0.000000 0.000000
							CHANNELS 3 Zrotation Yrotation Xrotation
							JOINT RightHand
							{
								OFFSET -3.450000 0.000000 0.000000
								CHANNELS 3 Zrotation Yrotation Xrotation
								JOINT RightHandIndex1
								{
									OFFSET -0.750000 0.000000 0.000000
									CHANNELS 3 Zrotation Yrotation Xrotation
									End Site
									{
										OFFSET 0.000000 0.000000 0.000000
									}
								}
							}
						}
					}
				}
			}
		}
	}
}
MOTION
Frames: 7
Frame Time: 0.016667
0.394210 15.424940 -1.371100 -3.330137 -17.147057 0.981952 -15.155577 12.593111 2.545432 9.549096 -3.743805 -24.625690 2.477406 8.760882 44.668792 -0.493868 8.382563 1.785189 0.573370 -0.143520 0.407250 18.469500 -9.151329 4.718144 -23.322296 6.644508 -33.391522 36.810507 -23.834272 38.269961 -1.579203 -9.892688 1.228165 0.205120 0.536010 0.182020 -3.894328 -2.270561 -8.302178 10.001169 -1.202234 17.445770 -4.375384 0.685305 1.907340 0.855192 -6.507709 -6.133417 -12.868629 7.199512 30.054582 0.299410 0.726440 -9.788140 -26.452204 -3.068557 -0.660274 -36.806710 -7.657794 -2.293962 -30.923276 -45.788423 10.227020 -3.855679 3.058503 0.818520 0.242510 -0.316970 0.366210 24.210659 7.916464 3.875312 36.552449 6.886258 -5.463613 49.034551 58.873881 22.698222 1.630559 -1.727769 -0.574790 0.538430 0.093400 -0.464470 
0.380650 15.395290 -1.380700 -3.581532 -17.214574 0.435083 -15.190811 12.597733 2.521318 9.429815 -3.813829 -24.845749 3.972234 8.377905 46.410541 -0.459731 8.586591 1.699428 0.561060 -0.159140 0.418700 18.448717 -9.007031 4.869025 -24.580320 6.688210 -33.837843 39.062305 -25.185290 38.566438 -1.694306 -10.188023 1.149396 0.188380 0.507240 0.183360 -3.813112 -2.435494 -8.427766 9.580929 -1.164945 18.538751 -3.992576 0.764276 1.548934 0.987670 -6.358811 -6.250947 -12.820453 7.349003 31.219809 -0.159260 1.141810 -10.669850 -27.024472 -3.451380 -0.601053 -36.784899 -7.214897 -2.726433 -29.809732 -44.716453 9.361267 -3.846979 3.008166 0.857700 0.224870 -0.288860 0.343480 24.581808 8.338880 3.952014 37.099412 7.030826 -5.681183 49.855421 57.812116 22.546346 1.637608 -1.679898 -0.578490 0.540190 0.106390 -0.484070 
0.369910 15.343850 -1.392340 -4.121599 -17.562146 -0.524978 -15.225714 12.604414 2.461785 9.044135 -3.766142 -25.081403 6.605475 7.603823 49.067251 -0.343504 8.849860 1.595800 0.543600 -0.165420 0.438180 18.431889 -8.784547 5.161035 -27.194706 6.836009 -34.434117 43.819013 -27.305650 38.123116 -1.875862 -10.559009 1.069938 0.149140 0.440730 0.172040 -3.736912 -2.629480 -8.650462 9.473484 -1.127965 20.411936 -3.680517 0.941826 0.699889 1.351901 -6.231732 -6.668484 -13.094215 7.679253 34.169616 -1.022150 1.736900 -11.599570 -28.310525 -4.253312 -0.233737 -36.976356 -5.424586 -3.741076 -26.722506 -40.734217 6.969387 -3.798206 2.916814 0.898730 0.180700 -0.229670 0.314430 25.210875 9.451228 4.198126 38.414032 7.313606 -6.366745 49.399787 55.848730 21.195724 1.670069 -1.605858 -0.556670 0.531000 0.099900 -0.497610 
0.352560 15.293750 -1.388570 -4.799371 -18.070524 -1.623534 -15.251695 12.664120 2.397824 8.947998 -3.581523 -24.954696 9.006472 6.881957 51.534550 -0.212632 9.120601 1.476667 0.550480 -0.150160 0.466180 18.409144 -8.599235 5.413755 -30.039011 6.820987 -34.225583 49.456516 -28.902972 36.245029 -2.028690 -10.699263 1.039536 0.111920 0.347110 0.172270 -3.657319 -2.851876 -8.855777 9.563087 -1.116024 22.474580 -3.556988 1.147934 -0.513485 1.756400 -6.172649 -7.316480 -13.584203 8.165807 37.518331 -1.351160 2.130360 -12.978190 -30.041432 -5.153302 0.266824 -36.615942 -2.581255 -4.852316 -23.112096 -35.895185 4.524519 -3.703224 2.865056 0.954700 0.107620 -0.149870 0.289640 26.210626 10.732610 4.744503 39.521664 6.501828 -7.312625 51.063413 54.137709 20.849637 1.717887 -1.562216 -0.514320 0.497950 0.083330 -0.507060 
0.333680 15.235320 -1.382560 -5.335420 -18.684433 -2.195951 -15.271310 12.579863 2.390049 8.966193 -3.425498 -25.847867 11.190105 6.424091 54.679721 -0.059171 9.584310 1.302513 0.579000 -0.107790 0.490600 18.424509 -8.410878 5.637103 -33.351553 6.636447 -34.304099 55.187643 -29.776243 33.488685 -2.126315 -10.691556 1.050887 0.104770 0.288820 0.184600 -3.668526 -2.866653 -9.023672 9.908798 -1.004377 23.510092 -3.893514 1.376526 -1.553143 2.073328 -5.836831 -7.406209 -13.124378 8.611591 39.895461 -1.464290 2.555290 -13.823200 -31.609416 -5.138048 0.378608 -36.028738 -0.216165 -5.073346 -19.675268 -29.673214 2.454516 -3.649562 2.823672 0.981620 0.068430 -0.092690 0.286600 27.107079 10.773457 4.604319 40.836233 6.381000 -7.483791 53.162302 52.404194 20.872137 1.745739 -1.553729 -0.473000 0.473140 0.060390 -0.506550 
0.305790 15.189530 -1.381350 -5.579031 -19.399308 -3.013557 -15.294528 12.583069 2.351087 8.842411 -3.003048 -26.162936 13.011942 5.995046 56.832613 0.074108 9.872141 1.172182 0.640360 -0.030260 0.552200 18.411458 -8.313795 5.795536 -36.298501 6.624697 -33.316343 59.980078 -28.966149 29.755017 -2.163257 -10.446604 1.100335 0.107400 0.189910 0.219410 -3.615704 -2.857707 -9.150666 9.617996 -0.526982 24.504175 -4.105738 1.855144 -2.323166 2.516221 -4.921558 -7.477675 -11.453150 8.479589 42.812996 -2.122220 3.247070 -14.923590 -33.276635 -5.319220 0.606679 -35.106458 1.963052 -4.797688 -15.080625 -22.100915 0.498312 -3.588693 2.801153 1.005080 0.018630 -0.010050 0.278170 27.904784 10.748764 4.338198 42.090119 6.460900 -7.564664 54.533187 50.239984 20.323985 1.777456 -1.575005 -0.400720 0.406670 0.012960 -0.511290 
0.274950 15.144280 -1.378700 -6.114743 -19.530038 -3.173523 -15.285627 12.550052 2.295869 8.724387 -2.578410 -26.729002 15.044798 5.187278 57.824160 0.119458 10.021213 1.108115 0.655570 -0.028650 0.598520 18.434795 -8.274099 5.919293 -38.541935 6.636759 -32.299922 63.349683 -27.243833 25.970300 -2.123848 -10.139380 1.172949 0.102470 0.149150 0.235840 -3.669499 -2.712251 -9.210004 10.056213 -0.263597 24.370849 -4.568635 2.167867 -2.403121 2.901115 -3.952919 -7.472951 -9.371329 8.293058 44.616433 -3.041370 4.162800 -14.505230 -34.258266 -5.486823 0.854468 -34.698109 3.259816 -3.883240 -11.394324 -14.482122 -0.745752 -3.618485 2.728386 1.015270 0.014180 0.011450 0.259950 28.066393 10.400620 3.935303 43.884966 6.990989 -7.314656 55.763442 48.799730 20.099905 1.788268 -1.586572 -0.386430 0.373090 0.001330 -0.536620 
